<?xml version="1.0" encoding="UTF-8"?>
<svg id="_レイヤー_1" data-name="レイヤー 1" xmlns="http://www.w3.org/2000/svg" viewBox="0 0 866.8 142.52">
  <path d="M0,0h18.68v66.07c6.64-5.98,13.97-8.96,22-8.96,9.13,0,16.44,2.96,21.91,8.88,4.65,5.15,6.97,13.36,6.97,24.65v49.56h-18.68v-47.81c0-6.47-1.15-11.17-3.44-14.07-2.3-2.9-5.99-4.36-11.08-4.36-6.53,0-11.12,2.02-13.78,6.06-2.6,4.1-3.9,11.12-3.9,21.08v39.1H0V0Z" style="fill: #ededed;"/>
  <path d="M79.37,99.19c0-11.68,4.18-21.61,12.53-29.8,8.36-8.19,18.54-12.29,30.55-12.29s22.3,4.12,30.71,12.37c8.3,8.25,12.45,18.37,12.45,30.38s-4.18,22.27-12.53,30.46c-8.41,8.13-18.73,12.2-30.96,12.2s-22.27-4.15-30.46-12.45c-8.19-8.19-12.29-18.48-12.29-30.88ZM98.46,99.53c0,8.08,2.16,14.47,6.47,19.17,4.43,4.76,10.26,7.14,17.51,7.14s13.14-2.35,17.51-7.06c4.37-4.7,6.56-10.98,6.56-18.84s-2.19-14.14-6.56-18.84c-4.43-4.76-10.27-7.14-17.51-7.14s-12.92,2.38-17.35,7.14c-4.43,4.76-6.64,10.9-6.64,18.43Z" style="fill: #ededed;"/>
  <path d="M176.19,59.35h18.68v7.22c3.43-3.6,6.47-6.06,9.13-7.39,2.71-1.38,5.92-2.08,9.63-2.08,4.92,0,10.07,1.61,15.44,4.81l-8.55,17.1c-3.54-2.54-7-3.82-10.38-3.82-10.18,0-15.27,7.69-15.27,23.08v41.92h-18.68V59.35Z" style="fill: #ededed;"/>
  <path d="M229.13,25.73c0-3.26,1.19-6.09,3.57-8.47s5.23-3.57,8.55-3.57,6.25,1.19,8.63,3.57c2.38,2.32,3.57,5.17,3.57,8.55s-1.19,6.25-3.57,8.63c-2.32,2.38-5.17,3.57-8.55,3.57s-6.25-1.19-8.63-3.57c-2.38-2.38-3.57-5.28-3.57-8.72ZM250.63,59.35v80.85h-18.68V59.35h18.68Z" style="fill: #ededed;"/>
  <path d="M293.28,122.6h48.06v17.6h-85.08l52.38-63.42h-41.25v-17.43h78.19l-52.29,63.25Z" style="fill: #ededed;"/>
  <path d="M347.22,99.19c0-11.68,4.18-21.61,12.53-29.8,8.36-8.19,18.54-12.29,30.55-12.29s22.3,4.12,30.71,12.37c8.3,8.25,12.45,18.37,12.45,30.38s-4.18,22.27-12.53,30.46c-8.41,8.13-18.73,12.2-30.96,12.2s-22.27-4.15-30.46-12.45c-8.19-8.19-12.29-18.48-12.29-30.88ZM366.31,99.53c0,8.08,2.16,14.47,6.47,19.17,4.43,4.76,10.26,7.14,17.51,7.14s13.14-2.35,17.51-7.06c4.37-4.7,6.56-10.98,6.56-18.84s-2.19-14.14-6.56-18.84c-4.43-4.76-10.27-7.14-17.51-7.14s-12.92,2.38-17.35,7.14c-4.43,4.76-6.64,10.9-6.64,18.43Z" style="fill: #ededed;"/>
  <path d="M443.53,59.35h18.76v7.47c6.53-6.47,13.89-9.71,22.08-9.71,9.41,0,16.74,2.96,22,8.88,4.54,5.04,6.81,13.25,6.81,24.65v49.56h-18.76v-45.16c0-7.97-1.11-13.47-3.32-16.52-2.16-3.1-6.09-4.65-11.79-4.65-6.2,0-10.6,2.05-13.2,6.14-2.55,4.04-3.82,11.1-3.82,21.17v39.01h-18.76V59.35Z" style="fill: #ededed;"/>
  <path d="M559.72,122.02h47.73v18.18h-86.08l44.49-53.87c4.37-5.37,8.04-10.02,11-13.95,2.96-3.93,5.21-7.22,6.76-9.88,3.15-5.2,4.73-9.88,4.73-14.03,0-5.98-2.1-10.98-6.31-15.02-4.21-4.04-9.41-6.06-15.61-6.06-12.95,0-20.37,7.67-22.25,22.99h-19.26c3.1-27,16.74-40.51,40.92-40.51,11.68,0,21.47,3.71,29.38,11.12,7.97,7.42,11.95,16.6,11.95,27.56,0,6.97-1.85,13.81-5.56,20.5-1.88,3.49-4.64,7.62-8.26,12.41-3.62,4.79-8.2,10.45-13.74,16.98l-19.92,23.57Z" style="fill: #ededed;"/>
  <path d="M640.97,0v85.5l26.31-26.15h25.07l-35.11,33.95,37.69,46.9h-24.24l-26.73-34.12-2.99,2.99v31.13h-18.68V0h18.68Z" style="fill: #ededed;"/>
  <path d="M731.34,80.68v-16.52c8.19,0,13.7-.91,16.52-2.74,5.04-3.21,7.55-8.36,7.55-15.44,0-5.48-1.83-9.93-5.48-13.36-3.6-3.49-8.27-5.23-14.03-5.23-5.37,0-9.52,1.3-12.45,3.9-2.82,2.66-4.93,7.14-6.31,13.45h-19.26c1.99-12.06,6.09-20.9,12.29-26.52,6.2-5.62,14.86-8.43,25.98-8.43s20.39,3.32,27.48,9.96c7.08,6.59,10.62,15.08,10.62,25.48,0,11.73-4.65,20.86-13.95,27.39,10.62,6.25,15.94,16.41,15.94,30.46,0,11.51-3.87,20.92-11.62,28.22-7.75,7.3-17.68,10.96-29.8,10.96-15.44,0-26.89-5.67-34.37-17.02-3.1-4.76-5.06-11.34-5.89-19.76h18.68c1,6.2,3.42,10.94,7.26,14.24,3.84,3.29,8.87,4.94,15.07,4.94s11.43-2.08,15.52-6.23c4.09-4.26,6.14-9.66,6.14-16.19,0-8.63-3.07-14.78-9.21-18.43-3.6-2.1-9.16-3.15-16.68-3.15Z" style="fill: #ededed;"/>
  <path d="M803.63,73.54c-9.41-6.64-14.11-15.69-14.11-27.14,0-10.4,3.57-19.09,10.71-26.06,7.19-6.97,16.13-10.46,26.81-10.46s19.48,3.49,26.56,10.46c7.08,6.92,10.62,15.63,10.62,26.15s-4.68,20-14.03,26.98c5.15,2.77,9.19,6.81,12.12,12.12,2.99,5.31,4.48,11.29,4.48,17.93,0,11.34-3.71,20.64-11.12,27.89-7.42,7.25-16.91,10.87-28.47,10.87s-21.61-3.65-29.3-10.96c-7.75-7.3-11.62-16.49-11.62-27.56,0-14.39,5.78-24.46,17.35-30.21ZM805.29,103.1c0,5.92,2.05,11.01,6.14,15.27,4.15,4.21,9.19,6.31,15.11,6.31s10.87-2.08,15.02-6.23c4.15-4.21,6.23-9.24,6.23-15.11s-2.08-10.96-6.23-15.11-9.16-6.23-15.02-6.23-10.82,2.08-15.02,6.23c-4.15,4.15-6.23,9.1-6.23,14.86ZM807.7,46.32c0,5.48,1.85,10.07,5.56,13.78,3.76,3.76,8.3,5.64,13.61,5.64s9.77-1.88,13.53-5.64,5.64-8.27,5.64-13.53-1.88-9.77-5.64-13.53c-3.76-3.76-8.27-5.64-13.53-5.64s-9.77,1.88-13.53,5.64-5.64,8.19-5.64,13.28Z" style="fill: #ededed;"/>
</svg>